<svg width="336" height="160" viewBox="0 0 336 160" fill="none" xmlns="http://www.w3.org/2000/svg">
<g clip-path="url(#clip0_275_292)">
<g clip-path="url(#clip1_275_292)">
<path d="M58.8133 67.9438L68.3485 86.1071C68.9994 87.3446 70.6041 88.349 71.9298 88.3457L91.3813 88.3046C92.7092 88.302 93.2571 87.295 92.6066 86.0555L83.0706 67.8931C82.4201 66.6532 80.8157 65.6516 79.4888 65.6545L60.0377 65.695C60.0077 65.695 59.9786 65.696 59.9486 65.696C58.6868 65.7437 58.1766 66.7319 58.8133 67.9438Z" fill="#0E0D17"/>
<path d="M95.7615 89.1074L101.536 99.8817C101.928 100.617 102.889 101.207 103.681 101.198L115.27 101.075C116.061 101.067 116.38 100.464 115.987 99.729L110.216 88.9555C109.822 88.22 108.86 87.6314 108.071 87.6397L96.4812 87.7615C96.4676 87.7615 96.4548 87.7615 96.4413 87.7615C95.6794 87.7899 95.3748 88.3833 95.7615 89.1074Z" fill="#0E0D17"/>
<path d="M95.8325 48.1971L84.2446 63.0711C83.4525 64.0872 83.3475 65.9083 84.0089 67.1436L93.697 85.2246C94.3572 86.4578 95.5353 86.6358 96.326 85.6222L107.916 70.7454C108.705 69.731 108.811 67.908 108.15 66.6737L98.4626 48.5921C98.0785 47.8784 97.5233 47.5186 96.9696 47.5379C96.5676 47.5543 96.1657 47.7699 95.8325 48.1971Z" fill="#0E0D17"/>
<path d="M93.1146 89.2877L86.208 98.1506C85.7352 98.7559 85.6743 99.8418 86.0674 100.576L91.8403 111.35C92.2353 112.086 92.9362 112.191 93.408 111.586L100.313 102.724C100.783 102.118 100.846 101.031 100.454 100.298L94.6803 89.5234C94.453 89.0979 94.1212 88.8831 93.7906 88.894C93.5521 88.9025 93.3115 89.0318 93.1146 89.2877Z" fill="#0E0D17"/>
<path d="M219.816 92.4427H223.686V63.3141H219.816V92.4427Z" fill="#0E0D17"/>
<path d="M150.491 72.5174C144.943 72.5174 140.445 77.0164 140.445 82.5661H140.438V101.119H144.307V82.5661H144.326C144.326 79.1335 147.109 76.3506 150.539 76.3506C153.972 76.3506 156.753 79.1335 156.753 82.5661C156.753 85.9977 153.972 88.7803 150.539 88.7803C148.604 88.7803 146.874 87.8937 145.736 86.5055V91.4175C147.151 92.18 148.772 92.6143 150.491 92.6143C156.043 92.6143 160.542 88.1144 160.542 82.5661C160.542 77.0164 156.043 72.5174 150.491 72.5174Z" fill="#0E0D17"/>
<path d="M172.3 72.5174C166.75 72.5174 162.252 77.0164 162.252 82.5661H162.246V101.119H166.114V82.5661H166.134C166.134 79.1335 168.916 76.3506 172.346 76.3506C175.781 76.3506 178.563 79.1335 178.563 82.5661C178.563 85.9977 175.781 88.7803 172.346 88.7803C170.411 88.7803 168.682 87.8937 167.543 86.5055V91.4175C168.958 92.18 170.582 92.6143 172.3 92.6143C177.849 92.6143 182.348 88.1144 182.348 82.5661C182.348 77.0164 177.849 72.5174 172.3 72.5174Z" fill="#0E0D17"/>
<path d="M128.029 63.3141C122.479 63.3141 117.98 67.8141 117.98 73.363V92.4427H121.851V73.363H121.856C121.856 69.9533 124.619 67.1892 128.03 67.1892C131.439 67.1892 134.201 69.9533 134.201 73.363H134.207V75.5474H124.266V79.416H134.207V92.4426H138.079V73.363C138.079 67.8141 133.58 63.3141 128.029 63.3141Z" fill="#0E0D17"/>
<path d="M206.89 73.3631C206.89 69.9526 209.655 67.1869 213.068 67.1869V67.1849H217.94V63.3141H213.067C207.519 63.3149 203.02 67.8141 203.02 73.363V92.4427H206.89V79.8132H217.583V75.9433H206.89V73.3631Z" fill="#0E0D17"/>
<path d="M239.881 72.644V84.8076H239.879C239.829 87.2548 237.837 89.2245 235.373 89.2245C232.916 89.2245 230.92 87.2548 230.873 84.8076H230.868V72.644H227V84.8198H227.006C227.052 88.732 229.782 91.9925 233.441 92.8598V101.119H237.31V92.8598C240.967 91.9925 243.699 88.732 243.745 84.8198H243.748V72.644H239.881Z" fill="#0E0D17"/>
<path d="M261.636 84.0881C261.243 85.6453 260.247 87.0493 258.744 87.9146C255.79 89.6231 252.012 88.6104 250.306 85.6569C248.599 82.7002 249.614 78.925 252.568 77.2183C254.935 75.8513 257.831 76.2335 259.763 77.9602L251.074 82.9769L253.008 86.3296L257.031 84.0065L265.161 79.3121C264.954 78.7081 264.69 78.1163 264.358 77.5426C261.584 72.7368 255.436 71.0902 250.631 73.8656C245.824 76.6402 244.179 82.7858 246.954 87.5915C249.729 92.3968 255.872 94.0443 260.679 91.2702C263.428 89.6838 265.14 86.9963 265.585 84.0881H261.636Z" fill="#0E0D17"/>
<path d="M277.719 72.5174C275.386 72.5174 273.246 73.3136 271.543 74.6448V72.6089H267.672V92.4427H271.543V82.566H271.544C271.544 79.1542 274.31 76.389 277.719 76.389V76.3866H278.503V72.5174H277.719Z" fill="#0E0D17"/>
<path d="M197.03 83.2432L187.405 78.755L187.408 78.7515C186.944 78.5209 186.747 77.9654 186.966 77.4951C187.126 77.1489 187.47 76.9493 187.828 76.948V76.94H198.81V73.0704H187.828V73.0754C186.01 73.0774 184.272 74.1027 183.454 75.8581C182.329 78.267 183.369 81.1278 185.769 82.2615L195.394 86.751L195.393 86.7534C195.393 86.7534 195.394 86.7534 195.397 86.7555C195.876 86.9776 196.082 87.5444 195.858 88.022C195.698 88.3697 195.35 88.5721 194.991 88.5699V88.5749H183.74V92.4426H194.992V92.4397C196.808 92.437 198.546 91.4115 199.365 89.656C200.492 87.2409 199.448 84.3698 197.03 83.2432Z" fill="#0E0D17"/>
</g>
</g>
<defs>
<clipPath id="clip0_275_292">
<rect width="334.94" height="159.97" fill="white" transform="translate(0.550781)"/>
</clipPath>
<clipPath id="clip1_275_292">
<rect width="334.94" height="159.97" fill="white" transform="translate(0.550781)"/>
</clipPath>
</defs>
</svg>
