<svg viewBox="0 0 30 30" fill="none" xmlns="http://www.w3.org/2000/svg">
<g id="Group 1000003007">
<circle id="Ellipse 1" cx="15" cy="15" r="15" fill="white"/>
<path id="Union" fill-rule="evenodd" clip-rule="evenodd" d="M12.1092 15.8888C13.2138 15.8888 14.1092 16.7842 14.1092 17.8888L14.1092 22.1111C14.1092 22.602 14.5072 23 14.9981 23C15.489 23 15.887 22.602 15.887 22.1111V17.8888C15.887 16.7842 16.7824 15.8888 17.887 15.8888H22.1114C22.6023 15.8888 23.0002 15.4908 23.0002 14.9999C23.0002 14.509 22.6023 14.111 22.1114 14.111H17.887C16.7824 14.111 15.887 13.2156 15.887 12.111V7.88889C15.887 7.39797 15.489 7 14.9981 7C14.5072 7 14.1092 7.39797 14.1092 7.88889L14.1092 12.111C14.1092 13.2156 13.2138 14.111 12.1092 14.111H7.88913C7.39821 14.111 7.00024 14.509 7.00024 14.9999C7.00024 15.4908 7.39821 15.8888 7.88913 15.8888H12.1092Z" fill="#0E0D17"/>
</g>
</svg>
