<svg width="32" height="32" viewBox="0 0 32 32" fill="none" xmlns="http://www.w3.org/2000/svg">
<g id="Menu" filter="url(#filter0_b_2572_2060)">
<circle id="Ellipse 2" cx="16" cy="16" r="15.5" stroke="#E7E7E7"/>
<g id="Group 1000003034">
<g id="Group 1000003035">
<path id="Line 3 (Stroke)" fill-rule="evenodd" clip-rule="evenodd" d="M24.7999 15.9997C24.7999 16.4415 24.4418 16.7997 24 16.7997L7.99995 16.7997C7.55812 16.7997 7.19995 16.4415 7.19995 15.9997C7.19995 15.5579 7.55812 15.1997 7.99995 15.1997L24 15.1997C24.4418 15.1997 24.7999 15.5579 24.7999 15.9997Z" fill="white"/>
<path id="Line 5 (Stroke)" fill-rule="evenodd" clip-rule="evenodd" d="M24.8001 11.1999C24.8001 11.6417 24.4419 11.9999 24.0001 11.9999L15.3334 11.9999C14.8916 11.9999 14.5334 11.6417 14.5334 11.1999C14.5334 10.7581 14.8916 10.3999 15.3334 10.3999L24.0001 10.3999C24.4419 10.3999 24.8001 10.7581 24.8001 11.1999Z" fill="white"/>
<path id="Line 4 (Stroke)" fill-rule="evenodd" clip-rule="evenodd" d="M17.4666 20.8C17.4666 21.2418 17.1084 21.6 16.6666 21.6L7.99995 21.6C7.55812 21.6 7.19995 21.2418 7.19995 20.8C7.19995 20.3582 7.55812 20 7.99995 20L16.6666 20C17.1084 20 17.4666 20.3582 17.4666 20.8Z" fill="white"/>
</g>
</g>
</g>
<defs>
<filter id="filter0_b_2572_2060" x="-9.6" y="-9.6" width="51.2" height="51.2" filterUnits="userSpaceOnUse" color-interpolation-filters="sRGB">
<feFlood flood-opacity="0" result="BackgroundImageFix"/>
<feGaussianBlur in="BackgroundImageFix" stdDeviation="4.8"/>
<feComposite in2="SourceAlpha" operator="in" result="effect1_backgroundBlur_2572_2060"/>
<feBlend mode="normal" in="SourceGraphic" in2="effect1_backgroundBlur_2572_2060" result="shape"/>
</filter>
</defs>
</svg>
