<svg width="145" height="32" viewBox="0 0 145 32" fill="none" xmlns="http://www.w3.org/2000/svg">
<path d="M27.9064 0.000244141H9.302L37.2086 15.9999L27.9064 0.000244141Z" fill="#0E0D17"/>
<path d="M9.302 31.9999H27.9064L37.2086 16.0002L9.302 31.9999Z" fill="#0E0D17"/>
<path d="M9.30221 0.000244141L0 15.9999L9.30221 31.9996L18.6044 15.9999L9.30221 0.000244141Z" fill="#0E0D17"/>
<path d="M46.1763 5.63636V26H42.4874V5.63636H46.1763ZM65.2254 5.63636V26H61.9441L52.349 12.1293H52.1799V26H48.491V5.63636H51.7922L61.3774 19.517H61.5564V5.63636H65.2254ZM78.6317 11.2344C78.5389 10.366 78.1478 9.68987 77.4584 9.20597C76.7756 8.72206 75.8874 8.48011 74.7936 8.48011C74.0247 8.48011 73.3651 8.59612 72.8149 8.82812C72.2647 9.06013 71.8438 9.375 71.5521 9.77273C71.2605 10.1705 71.1113 10.6245 71.1047 11.1349C71.1047 11.5592 71.2008 11.9271 71.3931 12.2386C71.5919 12.5502 71.8604 12.8153 72.1984 13.0341C72.5365 13.2462 72.911 13.4252 73.322 13.571C73.733 13.7169 74.1473 13.8395 74.5649 13.9389L76.474 14.4162C77.243 14.5952 77.9821 14.8371 78.6913 15.142C79.4073 15.447 80.0469 15.8314 80.6104 16.2955C81.1805 16.7595 81.6312 17.3196 81.9627 17.9759C82.2941 18.6321 82.4598 19.401 82.4598 20.2827C82.4598 21.4759 82.1549 22.5265 81.545 23.4347C80.9352 24.3362 80.0536 25.0421 78.9002 25.5526C77.7534 26.0563 76.3646 26.3082 74.734 26.3082C73.1497 26.3082 71.7742 26.063 70.6075 25.5724C69.4475 25.0819 68.5394 24.366 67.8831 23.4247C67.2335 22.4834 66.8822 21.3366 66.8291 19.9844H70.4584C70.5114 20.6937 70.7302 21.2836 71.1146 21.7543C71.4991 22.2249 71.9996 22.5762 72.6161 22.8082C73.2392 23.0402 73.9352 23.1562 74.7041 23.1562C75.5062 23.1562 76.2089 23.0369 76.8121 22.7983C77.4219 22.553 77.8992 22.215 78.2439 21.7841C78.5886 21.3466 78.7643 20.8362 78.7709 20.2528C78.7643 19.7225 78.6085 19.285 78.3036 18.9403C77.9986 18.589 77.5711 18.2973 77.0209 18.0653C76.4773 17.8267 75.841 17.6146 75.1118 17.429L72.795 16.8324C71.118 16.4015 69.7922 15.7486 68.8178 14.8736C67.85 13.992 67.3661 12.822 67.3661 11.3636C67.3661 10.1638 67.6909 9.11316 68.3405 8.21165C68.9967 7.31013 69.8883 6.6108 71.0152 6.11364C72.1421 5.60985 73.4181 5.35795 74.8433 5.35795C76.2884 5.35795 77.5545 5.60985 78.6416 6.11364C79.7354 6.6108 80.5938 7.3035 81.2169 8.19176C81.84 9.07339 82.1615 10.0876 82.1814 11.2344H78.6317ZM87.7574 5.63636V26H84.0685V5.63636H87.7574ZM103.714 12.1392C103.548 11.6023 103.32 11.1217 103.028 10.6974C102.743 10.2666 102.398 9.89867 101.994 9.59375C101.596 9.28883 101.139 9.06013 100.622 8.90767C100.105 8.74858 99.5413 8.66903 98.9315 8.66903C97.8377 8.66903 96.8633 8.94413 96.0082 9.49432C95.1531 10.0445 94.4803 10.8532 93.9897 11.9205C93.5058 12.9811 93.2639 14.2737 93.2639 15.7983C93.2639 17.3362 93.5058 18.6387 93.9897 19.706C94.4736 20.7732 95.1465 21.5852 96.0082 22.142C96.8699 22.6922 97.8709 22.9673 99.011 22.9673C100.045 22.9673 100.94 22.7685 101.696 22.3707C102.458 21.973 103.045 21.4096 103.456 20.6804C103.867 19.9446 104.072 19.0829 104.072 18.0952L104.907 18.2244H99.3789V15.3409H107.642V17.7869C107.642 19.5303 107.271 21.0384 106.528 22.3111C105.786 23.5838 104.765 24.5649 103.466 25.2543C102.166 25.937 100.675 26.2784 98.9911 26.2784C97.1152 26.2784 95.4679 25.8575 94.0494 25.0156C92.6375 24.1671 91.5338 22.964 90.7383 21.4062C89.9495 19.8419 89.5551 17.9858 89.5551 15.8381C89.5551 14.1941 89.7871 12.7259 90.2511 11.4332C90.7217 10.1406 91.378 9.04356 92.2198 8.14204C93.0617 7.2339 94.0494 6.54451 95.1829 6.07386C96.3164 5.59659 97.5494 5.35795 98.8818 5.35795C100.009 5.35795 101.059 5.52367 102.034 5.85511C103.008 6.17992 103.873 6.64394 104.629 7.24716C105.391 7.85038 106.018 8.56629 106.508 9.39489C106.999 10.2235 107.32 11.1383 107.473 12.1392H103.714ZM109.529 26V5.63636H113.218V14.2571H122.654V5.63636H126.353V26H122.654V17.3494H113.218V26H109.529ZM127.79 8.72869V5.63636H144.037V8.72869H137.743V26H134.084V8.72869H127.79Z" fill="#0E0D17"/>
</svg>
