<svg width="110" height="24" viewBox="0 0 110 24" fill="none" xmlns="http://www.w3.org/2000/svg">
<path d="M20.9301 0H6.97668L27.9068 11.9999L20.9301 0Z" fill="white"/>
<path d="M6.97668 24H20.9301L27.9068 12.0001L6.97668 24Z" fill="white"/>
<path d="M6.97672 0L0 11.9999L6.97672 23.9997L13.9534 11.9999L6.97672 0Z" fill="white"/>
<path d="M34.7573 4.22702V19.4999H31.9906V4.22702H34.7573ZM49.0442 4.22702V19.4999H46.5833L39.3868 9.09674H39.2601V19.4999H36.4933V4.22702H38.9692L46.1582 14.6376H46.2924V4.22702H49.0442ZM59.099 8.42557C59.0294 7.77428 58.7361 7.26718 58.219 6.90425C57.707 6.54132 57.0408 6.35985 56.2205 6.35985C55.6437 6.35985 55.1491 6.44686 54.7364 6.62086C54.3238 6.79487 54.0081 7.03102 53.7893 7.32932C53.5706 7.62762 53.4587 7.96818 53.4537 8.35099C53.4537 8.66918 53.5258 8.9451 53.67 9.17877C53.8192 9.41244 54.0205 9.6113 54.2741 9.77536C54.5276 9.93446 54.8085 10.0687 55.1167 10.1781C55.425 10.2874 55.7357 10.3794 56.0489 10.454L57.4808 10.8119C58.0575 10.9462 58.6118 11.1276 59.1438 11.3563C59.6807 11.585 60.1605 11.8734 60.5831 12.2214C61.0106 12.5694 61.3487 12.9895 61.5973 13.4817C61.8459 13.9739 61.9701 14.5506 61.9701 15.2118C61.9701 16.1067 61.7414 16.8947 61.2841 17.5759C60.8267 18.252 60.1654 18.7815 59.3004 19.1643C58.4403 19.5421 57.3987 19.7311 56.1757 19.7311C54.9875 19.7311 53.9559 19.5471 53.0809 19.1792C52.2108 18.8113 51.5297 18.2744 51.0375 17.5684C50.5503 16.8624 50.2868 16.0023 50.247 14.9881H52.969C53.0088 15.5201 53.1728 15.9626 53.4612 16.3155C53.7495 16.6685 54.1249 16.932 54.5873 17.106C55.0546 17.28 55.5766 17.367 56.1533 17.367C56.7549 17.367 57.2819 17.2776 57.7343 17.0986C58.1917 16.9146 58.5497 16.6611 58.8082 16.3379C59.0667 16.0098 59.1985 15.627 59.2034 15.1895C59.1985 14.7917 59.0816 14.4636 58.8529 14.2051C58.6242 13.9416 58.3036 13.7228 57.8909 13.5488C57.4832 13.3699 57.006 13.2108 56.4591 13.0716L54.7215 12.6241C53.4637 12.301 52.4694 11.8112 51.7385 11.155C51.0127 10.4938 50.6497 9.61627 50.6497 8.52251C50.6497 7.62265 50.8933 6.83464 51.3806 6.1585C51.8728 5.48236 52.5414 4.95785 53.3866 4.58498C54.2318 4.20714 55.1888 4.01821 56.2577 4.01821C57.3416 4.01821 58.2911 4.20714 59.1065 4.58498C59.9268 4.95785 60.5706 5.47739 61.038 6.14359C61.5053 6.80481 61.7464 7.56547 61.7613 8.42557H59.099ZM65.9434 4.22702V19.4999H63.1767V4.22702H65.9434ZM77.911 9.10419C77.7867 8.70149 77.6152 8.34105 77.3965 8.02286C77.1827 7.69971 76.9242 7.42378 76.6209 7.19509C76.3226 6.96639 75.9796 6.79487 75.5918 6.68052C75.204 6.5612 74.7814 6.50154 74.324 6.50154C73.5037 6.50154 72.7729 6.70787 72.1315 7.12051C71.4902 7.53316 70.9856 8.1397 70.6177 8.94013C70.2547 9.73559 70.0733 10.7051 70.0733 11.8485C70.0733 13.002 70.2547 13.9789 70.6177 14.7793C70.9806 15.5797 71.4852 16.1888 72.1315 16.6064C72.7778 17.019 73.5285 17.2254 74.3837 17.2254C75.1592 17.2254 75.8304 17.0762 76.3972 16.7779C76.9689 16.4796 77.4089 16.057 77.7171 15.5101C78.0254 14.9583 78.1795 14.312 78.1795 13.5712L78.8059 13.6682H74.6596V11.5055H80.8567V13.34C80.8567 14.6476 80.5783 15.7786 80.0215 16.7332C79.4647 17.6877 78.699 18.4235 77.7246 18.9406C76.7502 19.4526 75.6315 19.7087 74.3687 19.7087C72.9618 19.7087 71.7263 19.393 70.6624 18.7616C69.6034 18.1252 68.7757 17.2229 68.1791 16.0545C67.5874 14.8812 67.2916 13.4892 67.2916 11.8784C67.2916 10.6454 67.4656 9.54418 67.8137 8.57472C68.1666 7.60525 68.6588 6.78244 69.2902 6.1063C69.9216 5.42519 70.6624 4.90814 71.5125 4.55515C72.3627 4.19719 73.2874 4.01821 74.2867 4.01821C75.1319 4.01821 75.9199 4.1425 76.6507 4.39109C77.3816 4.6347 78.0304 4.98271 78.5971 5.43513C79.1689 5.88755 79.6387 6.42448 80.0066 7.04594C80.3745 7.66739 80.6156 8.35348 80.73 9.10419H77.911ZM82.2721 19.4999V4.22702H85.0388V10.6926H92.1159V4.22702H94.8901V19.4999H92.1159V13.0119H85.0388V19.4999H82.2721ZM95.968 6.54629V4.22702H108.153V6.54629H103.433V19.4999H100.689V6.54629H95.968Z" fill="white"/>
</svg>
