<svg width="12" height="13" viewBox="0 0 12 13" fill="none" xmlns="http://www.w3.org/2000/svg">
<path id="Vector" d="M4.29195 2.29481C5.05216 0.931602 5.43196 0.25 6.00016 0.25C6.56836 0.25 6.94816 0.931602 7.70836 2.29481L7.90516 2.64761C8.12117 3.03521 8.22917 3.22901 8.39717 3.35681C8.56517 3.48461 8.77517 3.53201 9.19517 3.62681L9.57677 3.71321C11.0528 4.04741 11.7902 4.21421 11.966 4.77881C12.1412 5.34282 11.6384 5.93142 10.6322 7.10802L10.3718 7.41222C10.0862 7.74642 9.94277 7.91382 9.87857 8.12022C9.81437 8.32722 9.83597 8.55042 9.87917 8.99623L9.91877 9.40243C10.0706 10.9726 10.1468 11.7574 9.68717 12.106C9.22757 12.4552 8.53637 12.1366 7.15516 11.5006L6.79696 11.3362C6.40456 11.155 6.20836 11.065 6.00016 11.065C5.79196 11.065 5.59576 11.155 5.20336 11.3362L4.84576 11.5006C3.46395 12.1366 2.77275 12.4546 2.31375 12.1066C1.85355 11.7574 1.92975 10.9726 2.08155 9.40243L2.12115 8.99683C2.16435 8.55042 2.18595 8.32722 2.12115 8.12082C2.05755 7.91382 1.91415 7.74642 1.62855 7.41282L1.36815 7.10802C0.361942 5.93202 -0.140859 5.34342 0.0343411 4.77881C0.210142 4.21421 0.948144 4.04681 2.42415 3.71321L2.80575 3.62681C3.22515 3.53201 3.43455 3.48461 3.60315 3.35681C3.77115 3.22901 3.87915 3.03521 4.09515 2.64761L4.29195 2.29481Z" fill="white"/>
</svg>
