<svg width="25" height="16" viewBox="0 0 25 16" fill="none" xmlns="http://www.w3.org/2000/svg">
<path fill-rule="evenodd" clip-rule="evenodd" d="M24.2 7.7001C24.2 8.30761 23.7075 8.8001 23.1 8.8001L1.1 8.8001C0.492487 8.8001 -3.13479e-07 8.30761 -2.01947e-07 7.7001C-9.04146e-08 7.09258 0.492487 6.6001 1.1 6.6001L23.1 6.6001C23.7075 6.6001 24.2 7.09259 24.2 7.7001Z" fill="#0E0D17"/>
<path fill-rule="evenodd" clip-rule="evenodd" d="M24.2065 1.1C24.2065 1.70752 23.714 2.2 23.1065 2.2L11.1898 2.2C10.5823 2.2 10.0898 1.70751 10.0898 1.1C10.0898 0.492487 10.5823 9.39373e-08 11.1898 2.09815e-07L23.1065 2.48281e-06C23.714 2.59868e-06 24.2065 0.492489 24.2065 1.1Z" fill="#0E0D17"/>
<path fill-rule="evenodd" clip-rule="evenodd" d="M14.1167 14.3002C14.1167 14.9077 13.6242 15.4002 13.0167 15.4002L1.1 15.4002C0.492486 15.4002 -3.13479e-07 14.9077 -2.01947e-07 14.3002C-9.04146e-08 13.6927 0.492487 13.2002 1.1 13.2002L13.0167 13.2002C13.6242 13.2002 14.1167 13.6927 14.1167 14.3002Z" fill="#0E0D17"/>
</svg>
