<svg width="336" height="160" viewBox="0 0 336 160" fill="none" xmlns="http://www.w3.org/2000/svg">
<g clip-path="url(#clip0_275_276)">
<g clip-path="url(#clip1_275_276)">
<mask id="mask0_275_276" style="mask-type:luminance" maskUnits="userSpaceOnUse" x="98" y="54" width="141" height="52">
<path d="M238.564 54.9897H98.5898V105.115H238.564V54.9897Z" fill="white"/>
</mask>
<g mask="url(#mask0_275_276)">
<path d="M115.598 72.1594C115.598 70.4093 114.176 68.99 112.423 68.99C110.672 68.99 109.25 70.4093 109.25 72.1594C109.25 73.9095 110.672 75.3288 112.423 75.3288C114.176 75.3288 115.598 73.9095 115.598 72.1594Z" fill="#0E0D17"/>
<path d="M116.414 92.3733H108.433C108.145 92.3733 107.894 92.5354 107.727 92.7658C107.558 92.9985 107.459 93.3043 107.457 93.642V93.6533C107.459 96.1976 108.666 98.9904 109.859 101.165C111.053 103.338 112.246 104.886 112.251 104.893L112.274 104.925L112.422 105.117L112.594 104.893C112.594 104.893 113.791 103.34 114.987 101.165C116.178 98.9904 117.385 96.1976 117.387 93.6533V93.642C117.387 93.3043 117.289 92.9985 117.118 92.7658C116.951 92.5354 116.7 92.3733 116.412 92.3733H116.414Z" fill="#0E0D17"/>
<path d="M119.326 92.1455C119.474 92.2893 119.673 92.3692 119.881 92.3692L120.37 92.3738L125.822 92.3327C125.87 92.3372 125.936 92.3281 126.014 92.287C126.071 92.2574 126.131 92.2049 126.165 92.1501C126.245 92.0201 126.254 91.906 126.256 91.7873C126.256 91.6527 126.236 91.5113 126.188 91.3127C126.147 91.1439 126.09 90.9523 126.01 90.724C125.829 90.2084 125.628 89.7064 125.429 89.266L121.625 80.9124V80.8919C121.547 78.3409 121.447 75.4614 121.282 73.4465C121.211 72.5863 121.143 72.0045 121.063 71.6189C119.826 65.7228 116.992 60.0412 112.871 55.1993C112.765 55.0738 112.606 54.9962 112.446 54.9917H112.393C112.226 55.0031 112.075 55.0784 111.972 55.1993C107.855 60.0412 105.022 65.7228 103.784 71.6257C103.704 72.0113 103.633 72.5909 103.564 73.4533C103.402 75.4682 103.299 78.3477 103.224 80.8964L103.215 80.9375L103.162 81.0585L99.417 89.2706C99.2182 89.7109 99.0172 90.2152 98.8366 90.7286C98.7566 90.9568 98.6995 91.1484 98.6584 91.315C98.6104 91.5112 98.5898 91.655 98.5898 91.7919C98.5898 91.906 98.6012 92.0224 98.6812 92.1524C98.7155 92.2072 98.7749 92.2597 98.8321 92.2893C98.912 92.3304 98.976 92.3395 99.008 92.335L104.481 92.3738L104.965 92.3692C105.175 92.3692 105.374 92.2893 105.523 92.1455C105.676 91.9973 105.763 91.7919 105.763 91.5774V83.0185C105.765 82.6055 105.776 81.8891 105.792 81.0083V80.8828C105.814 79.8286 105.844 78.8429 105.876 77.953C105.924 76.6387 105.977 75.5092 106.038 74.6011C106.109 73.5446 106.194 72.7301 106.281 72.3103C106.854 69.4489 107.844 66.6012 109.224 63.8471C110.127 62.0423 111.2 60.299 112.249 58.9346L112.425 58.7064L112.601 58.9346C113.65 60.299 114.724 62.0446 115.627 63.8471C117.004 66.6012 117.993 69.4489 118.569 72.3103C118.654 72.7324 118.741 73.5446 118.812 74.6011C118.873 75.516 118.928 76.6432 118.974 77.9553C119.006 78.8543 119.036 79.8377 119.058 80.8828V81.0128C119.077 81.8914 119.086 82.6078 119.088 83.0208V91.5797C119.088 91.7942 119.175 91.9996 119.328 92.1478L119.326 92.1455Z" fill="#0E0D17"/>
<path d="M196.576 72.2193C189.376 72.2193 183.52 78.0994 183.52 85.3234C183.52 92.5475 189.378 98.4253 196.576 98.4253C203.776 98.4253 209.633 92.5452 209.633 85.3211C209.633 78.0971 203.774 72.2193 196.576 72.217V72.2193ZM201.153 89.9166C199.93 91.1441 198.304 91.8196 196.576 91.8196C194.848 91.8196 193.222 91.1441 191.999 89.9166C190.777 88.689 190.102 87.0575 190.102 85.3211C190.102 83.5846 190.777 81.9533 191.999 80.7257C193.222 79.498 194.848 78.8226 196.576 78.8226C198.304 78.8226 199.93 79.498 201.153 80.7257C202.375 81.9533 203.049 83.5846 203.049 85.3211C203.049 87.0552 202.375 88.689 201.153 89.9166Z" fill="#0E0D17"/>
<path d="M139.629 61.5743H132.988V98.491H139.629V61.5743Z" fill="#0E0D17"/>
<path d="M150.198 72.214H143.559V98.4886H150.198V72.214Z" fill="#0E0D17"/>
<path d="M176.947 65.6565H170.238V72.1641H162.867V71.0712C162.867 69.5812 163.182 68.5544 163.817 67.9817C164.453 67.4112 165.58 67.1442 167.195 67.1739V61.5722C163.486 61.4763 160.71 62.1906 158.871 63.7102C157.031 65.2299 156.113 67.6051 156.113 70.8338V72.1664H153.117V77.6267H156.113V98.4773H162.867V77.6244H170.238V90.3064C170.238 95.753 173.044 98.4752 178.658 98.4752H182.843V92.8711H179.753C178.736 92.8711 178.017 92.6748 177.589 92.2778C177.162 91.8831 176.947 91.2419 176.947 90.3543V77.6244H182.843V72.1641H176.947V65.6565Z" fill="#0E0D17"/>
<path d="M149.43 62.5465C147.979 61.2504 145.783 61.2504 144.332 62.5465C143.665 63.1717 143.295 64.0524 143.317 64.9674C143.295 65.8824 143.665 66.7631 144.332 67.3884C145.783 68.6844 147.979 68.6844 149.43 67.3884C150.097 66.7631 150.467 65.8824 150.444 64.9674C150.465 64.0524 150.097 63.174 149.43 62.5465Z" fill="#0E0D17"/>
<path d="M238.568 72.1641H234.22V71.0712C234.22 69.5812 234.535 68.5544 235.17 67.9817C235.806 67.4112 236.932 67.1442 238.547 67.1739V61.5722C234.839 61.4763 232.063 62.1906 230.224 63.7102C228.384 65.2299 227.465 67.6051 227.465 70.8338V72.1664H219.891V71.0734C219.891 69.5835 220.206 68.5567 220.842 67.984C221.476 67.4135 222.603 67.1465 224.219 67.1762V61.5722C220.51 61.4763 217.734 62.1906 215.895 63.7102C214.055 65.2299 213.136 67.6051 213.136 70.8338V72.1664H210.141V77.6267H213.136V98.4773H219.891V77.6244H227.465V98.4752H234.22V77.6244H238.568V72.1641Z" fill="#0E0D17"/>
</g>
</g>
</g>
<defs>
<clipPath id="clip0_275_276">
<rect width="334.94" height="159.97" fill="white" transform="translate(0.609375)"/>
</clipPath>
<clipPath id="clip1_275_276">
<rect width="334.94" height="159.97" fill="white" transform="translate(0.609375)"/>
</clipPath>
</defs>
</svg>
