<svg width="189" height="32" viewBox="0 0 189 32" fill="none" xmlns="http://www.w3.org/2000/svg">
<path d="M0 0.422485H5.44563V31.6424H0V0.422485Z" fill="#0E0D17"/>
<path d="M16.6315 9.03146V31.6398H11.7305V0.4198H18.5618L24.153 19.1054V0.4198H29.0055V31.6398H23.4089L16.6315 9.03146Z" fill="#0E0D17"/>
<path d="M42.6177 0.0679932C47.9123 0.0679932 50.6351 2.92237 50.6351 7.91885V8.90089H45.4914V7.60589C45.4914 5.37743 44.4994 4.53031 42.7686 4.53031C41.0379 4.53031 40.0458 5.37743 40.0458 7.60589C40.0458 14.0269 50.6891 15.2301 50.6891 24.1493C50.6891 29.1458 47.9177 32.0002 42.5691 32.0002C37.2206 32.0002 34.4492 29.1458 34.4492 24.1493V22.2338H39.5983V24.4623C39.5983 26.6907 40.6874 27.4947 42.4182 27.4947C44.1489 27.4947 45.238 26.6907 45.238 24.4623C45.238 18.0413 34.5948 16.8381 34.5948 7.91885C34.6002 2.92237 37.323 0.0679932 42.6177 0.0679932Z" fill="#0E0D17"/>
<path d="M56.1836 0.422607H61.6292V31.6426H56.1836V0.422607Z" fill="#0E0D17"/>
<path d="M76.1238 14.2479H83.7477V24.1491C83.7477 29.1456 80.9763 32 75.6277 32C70.2845 32 67.5078 29.1456 67.5078 24.1491V7.91322C67.5078 2.91673 70.2792 0.0623779 75.6277 0.0623779C80.9763 0.0623779 83.7477 2.91673 83.7477 7.91322V10.9456H78.604V7.60027C78.604 5.37182 77.5148 4.52468 75.7787 4.52468C74.048 4.52468 72.9588 5.37182 72.9588 7.60027V24.4567C72.9588 26.6851 74.048 27.4891 75.7787 27.4891C77.5094 27.4891 78.604 26.6851 78.604 24.4567V18.7048H76.1292V14.2479H76.1238Z" fill="#0E0D17"/>
<path d="M95.0863 31.6426H89.6406V0.422607H95.0863V13.8041H101.276V0.422607H106.819V31.6426H101.276V18.261H95.0863V31.6426Z" fill="#0E0D17"/>
<path d="M111.564 0.422485H128.392V4.8848H122.698V31.6424H117.252V4.8848H111.559V0.422485H111.564Z" fill="#0E0D17"/>
<path d="M131.953 0.163086H135.819C138.262 0.163086 139.46 1.38308 139.46 3.62496V10.7104C139.46 12.9522 138.262 14.1723 135.819 14.1723H131.953V0.163086ZM134.397 2.16514V12.1702H135.772C136.548 12.1702 137.017 11.8104 137.017 10.8094V3.5259C137.017 2.52488 136.548 2.16514 135.772 2.16514H134.397Z" fill="#0E0D17"/>
<path d="M142.074 0.163086H144.518V14.167H142.074V0.163086Z" fill="#0E0D17"/>
<path d="M151.026 6.36578H154.443V10.8078C154.443 13.0497 153.198 14.3271 150.802 14.3271C148.405 14.3271 147.16 13.0445 147.16 10.8078V3.52432C147.16 1.28243 148.405 -0.00012207 150.802 -0.00012207C153.198 -0.00012207 154.443 1.28243 154.443 3.52432V4.8851H152.135V3.38355C152.135 2.38253 151.646 2.00193 150.87 2.00193C150.093 2.00193 149.604 2.38253 149.604 3.38355V10.9434C149.604 11.9444 150.093 12.3042 150.87 12.3042C151.646 12.3042 152.135 11.9444 152.135 10.9434V8.36261H151.026V6.36578Z" fill="#0E0D17"/>
<path d="M157.09 0.163086H159.533V14.167H157.09V0.163086Z" fill="#0E0D17"/>
<path d="M161.66 0.163086H169.209V2.16514H166.656V14.167H164.213V2.16514H161.66V0.163086Z" fill="#0E0D17"/>
<path d="M178.409 14.167H175.944L175.522 11.628H172.527L172.105 14.167H169.859L172.344 0.163086H175.918L178.409 14.167ZM172.829 9.73018H175.184L174.006 2.64479L172.829 9.73018Z" fill="#0E0D17"/>
<path d="M180.602 0.163086H183.045V12.165H187.062V14.167H180.602V0.163086Z" fill="#0E0D17"/>
<path d="M139.857 31.7732H137.392L136.97 29.2342H133.975L133.553 31.7732H131.312L133.798 17.7693H137.371L139.857 31.7732ZM134.287 27.3364H136.642L135.465 20.251L134.287 27.3364Z" fill="#0E0D17"/>
<path d="M145.698 23.9719H149.115V28.4139C149.115 30.6558 147.87 31.9332 145.474 31.9332C143.077 31.9332 141.832 30.6506 141.832 28.4139V21.1304C141.832 18.8885 143.077 17.606 145.474 17.606C147.87 17.606 149.115 18.8885 149.115 21.1304V22.4912H146.807V20.9896C146.807 19.9886 146.318 19.608 145.541 19.608C144.765 19.608 144.275 19.9886 144.275 20.9896V28.5495C144.275 29.5505 144.765 29.9103 145.541 29.9103C146.318 29.9103 146.807 29.5505 146.807 28.5495V25.9687H145.698V23.9719Z" fill="#0E0D17"/>
<path d="M154.205 23.6685H157.56V25.6706H154.205V29.7738H158.425V31.7758H151.762V17.7719H158.425V19.7739H154.205V23.6685Z" fill="#0E0D17"/>
<path d="M163.175 21.6326V31.7732H160.977V17.7693H164.04L166.551 26.1529V17.7693H168.729V31.7732H166.218L163.175 21.6326Z" fill="#0E0D17"/>
<path d="M178.627 26.5526V28.4139C178.627 30.6558 177.382 31.9332 174.985 31.9332C172.589 31.9332 171.344 30.6506 171.344 28.4139V21.1304C171.344 18.8885 172.589 17.606 174.985 17.606C177.382 17.606 178.627 18.8885 178.627 21.1304V22.4912H176.319V20.9896C176.319 19.9886 175.835 19.608 175.053 19.608C174.272 19.608 173.787 19.9886 173.787 20.9896V28.5495C173.787 29.5505 174.277 29.9103 175.053 29.9103C175.829 29.9103 176.319 29.5505 176.319 28.5495V26.5474H178.627V26.5526Z" fill="#0E0D17"/>
<path d="M183.225 27.1331L180.141 17.7693H182.693L184.559 24.1508L186.424 17.7693H188.758L185.668 27.1331V31.7732H183.225V27.1331Z" fill="#0E0D17"/>
</svg>
