<svg width="336" height="160" fill="none" xmlns="http://www.w3.org/2000/svg"><g clip-path="url('#clip0_275_292')"><g clip-path="url('#clip1_275_292')" fill="#0E0D17"><path d="m58.813 67.944 9.535 18.163c.651 1.238 2.256 2.242 3.582 2.239l19.451-.041c1.328-.003 1.876-1.01 1.226-2.25L83.07 67.893c-.65-1.24-2.255-2.241-3.582-2.239l-19.451.041-.09.001c-1.261.048-1.771 1.036-1.135 2.248ZM95.761 89.107l5.775 10.775c.392.735 1.353 1.325 2.145 1.316l11.589-.123c.791-.008 1.11-.611.717-1.346l-5.771-10.773c-.394-.736-1.356-1.325-2.145-1.316l-11.59.121h-.04c-.762.029-1.066.622-.68 1.346ZM95.832 48.197 84.245 63.071c-.793 1.016-.898 2.837-.236 4.073l9.688 18.08c.66 1.234 1.838 1.412 2.629.398l11.59-14.877c.789-1.014.895-2.837.234-4.071l-9.687-18.082c-.384-.714-.94-1.073-1.493-1.054-.402.016-.804.232-1.138.66ZM93.115 89.288l-6.907 8.863c-.473.605-.534 1.69-.14 2.425l5.772 10.774c.395.736 1.096.841 1.568.236l6.905-8.862c.47-.606.533-1.693.141-2.426L94.68 89.523c-.227-.425-.559-.64-.89-.629-.238.008-.479.138-.675.394ZM219.816 92.443h3.87V63.314h-3.87v29.129ZM150.491 72.517c-5.548 0-10.046 4.5-10.046 10.05h-.007v18.552h3.869V82.566h.019a6.214 6.214 0 1 1 12.427 0 6.214 6.214 0 0 1-11.017 3.94v4.912a10 10 0 0 0 4.755 1.196c5.552 0 10.051-4.5 10.051-10.048 0-5.55-4.499-10.049-10.051-10.049ZM172.3 72.517c-5.55 0-10.048 4.5-10.048 10.05h-.006v18.552h3.868V82.566h.02a6.214 6.214 0 1 1 6.212 6.214 6.199 6.199 0 0 1-4.803-2.275v4.913a10.01 10.01 0 0 0 4.757 1.196c5.549 0 10.048-4.5 10.048-10.048 0-5.55-4.499-10.049-10.048-10.049ZM128.029 63.314c-5.55 0-10.049 4.5-10.049 10.049v19.08h3.871v-19.08h.005a6.173 6.173 0 1 1 12.345 0h.006v2.184h-9.941v3.869h9.941v13.027h3.872v-19.08c0-5.549-4.499-10.049-10.05-10.049ZM206.89 73.363a6.177 6.177 0 0 1 6.178-6.176v-.002h4.872v-3.87h-4.873c-5.548 0-10.047 4.5-10.047 10.048v19.08h3.87v-12.63h10.693v-3.87H206.89v-2.58ZM239.881 72.644v12.164h-.002a4.503 4.503 0 0 1-9.006 0h-.005V72.644H227V84.82h.006c.046 3.912 2.776 7.173 6.435 8.04v8.259h3.869v-8.26c3.657-.866 6.389-4.127 6.435-8.04h.003V72.645h-3.867ZM261.636 84.088a6.13 6.13 0 0 1-2.892 3.827 6.175 6.175 0 1 1-6.176-10.697 6.17 6.17 0 0 1 7.195.742l-8.689 5.017 1.934 3.353 4.023-2.323 8.13-4.695a9.985 9.985 0 0 0-.803-1.77c-2.774-4.805-8.922-6.452-13.727-3.676-4.807 2.774-6.452 8.92-3.677 13.725 2.775 4.806 8.918 6.453 13.725 3.68a10.017 10.017 0 0 0 4.906-7.183h-3.949ZM277.719 72.517a9.988 9.988 0 0 0-6.176 2.128v-2.036h-3.871v19.834h3.871v-9.877h.001a6.177 6.177 0 0 1 6.175-6.177v-.002h.784v-3.87h-.784ZM197.03 83.243l-9.625-4.488.003-.004a.949.949 0 0 1 .42-1.803v-.008h10.982v-3.87h-10.982v.005a4.82 4.82 0 0 0-4.374 2.783 4.826 4.826 0 0 0 2.315 6.403l9.625 4.49-.001.002.004.002a.95.95 0 0 1-.406 1.815v.005H183.74v3.868h11.252v-.003a4.824 4.824 0 0 0 2.038-9.197Z"/></g></g><defs><clipPath id="clip0_275_292"><path fill="#fff" transform="translate(.55)" d="M0 0h334.94v159.97H0z"/></clipPath><clipPath id="clip1_275_292"><path fill="#fff" transform="translate(.55)" d="M0 0h334.94v159.97H0z"/></clipPath></defs></svg>