<svg viewBox="0 0 32 32" fill="none" xmlns="http://www.w3.org/2000/svg"><g id="Menu" filter="url('#filter0_b_386_8437')"><circle id="Ellipse 2" cx="16" cy="16" r="15.5" stroke="#E7E7E7"/><g id="Group 1000003034"><g id="Group 1000003035" fill-rule="evenodd" clip-rule="evenodd" fill="#0E0D17"><path id="Line 3 (Stroke)" d="M24.8 16a.8.8 0 0 1-.8.8H8a.8.8 0 0 1 0-1.6h16a.8.8 0 0 1 .8.8Z"/><path id="Line 5 (Stroke)" d="M24.8 11.2a.8.8 0 0 1-.8.8h-8.667a.8.8 0 0 1 0-1.6H24a.8.8 0 0 1 .8.8Z"/><path id="Line 4 (Stroke)" d="M17.467 20.8a.8.8 0 0 1-.8.8H8A.8.8 0 0 1 8 20h8.667a.8.8 0 0 1 .8.8Z"/></g></g></g><defs><filter id="filter0_b_386_8437" x="-9.6" y="-9.6" width="51.2" height="51.2" filterUnits="userSpaceOnUse" color-interpolation-filters="sRGB"><feFlood flood-opacity="0" result="BackgroundImageFix"/><feGaussianBlur in="BackgroundImageFix" stdDeviation="4.8"/><feComposite in2="SourceAlpha" operator="in" result="effect1_backgroundBlur_386_8437"/><feBlend in="SourceGraphic" in2="effect1_backgroundBlur_386_8437" result="shape"/></filter></defs></svg>