<svg width="32" height="32" fill="none" xmlns="http://www.w3.org/2000/svg"><g filter="url('#filter0_b_2044_3393')"><circle cx="16" cy="16" r="15.5" stroke="#fff"/><path fill-rule="evenodd" clip-rule="evenodd" d="M14.584 18.673a2 2 0 0 1 2.829 0l2.985 2.985a.889.889 0 0 0 1.257-1.257l-2.985-2.985a2 2 0 0 1 0-2.829l2.987-2.987a.889.889 0 1 0-1.257-1.257l-2.987 2.987a2 2 0 0 1-2.829 0L11.6 10.345a.889.889 0 1 0-1.257 1.257l2.985 2.985a2 2 0 0 1 0 2.829L10.343 20.4a.889.889 0 1 0 1.257 1.257l2.984-2.984Z" fill="#fff"/></g><defs><filter id="filter0_b_2044_3393" x="-9.6" y="-9.6" width="51.2" height="51.2" filterUnits="userSpaceOnUse" color-interpolation-filters="sRGB"><feFlood flood-opacity="0" result="BackgroundImageFix"/><feGaussianBlur in="BackgroundImageFix" stdDeviation="4.8"/><feComposite in2="SourceAlpha" operator="in" result="effect1_backgroundBlur_2044_3393"/><feBlend in="SourceGraphic" in2="effect1_backgroundBlur_2044_3393" result="shape"/></filter></defs></svg>