<svg width="19" height="19" viewBox="0 0 19 19" fill="none" xmlns="http://www.w3.org/2000/svg">
<g id="Component 1" clip-path="url('#clip0_2160_4308')">
<path id="Vector (Stroke)" fill-rule="evenodd" clip-rule="evenodd" d="M13.2467 9.58417C13.2467 9.16099 13.5898 8.81793 14.0129 8.81793H17.0779C17.5011 8.81793 17.8441 9.16099 17.8441 9.58417C17.8441 10.0073 17.5011 10.3504 17.0779 10.3504H14.0129C13.5898 10.3504 13.2467 10.0073 13.2467 9.58417Z" fill="white"></path>
<path id="Vector (Stroke)_2" fill-rule="evenodd" clip-rule="evenodd" d="M0.986969 9.58417C0.986969 9.16099 1.33002 8.81793 1.7532 8.81793H4.81814C5.24132 8.81793 5.58437 9.16099 5.58437 9.58417C5.58437 10.0073 5.24132 10.3504 4.81814 10.3504H1.7532C1.33002 10.3504 0.986969 10.0073 0.986969 9.58417Z" fill="white"></path>
<path id="Vector (Stroke)_3" fill-rule="evenodd" clip-rule="evenodd" d="M9.41553 1.15561C9.8387 1.15561 10.1818 1.49866 10.1818 1.92184V4.98678C10.1818 5.40996 9.8387 5.75301 9.41553 5.75301C8.99235 5.75301 8.64929 5.40996 8.64929 4.98678V1.92184C8.64929 1.49866 8.99235 1.15561 9.41553 1.15561Z" fill="white"></path>
<path id="Vector (Stroke)_4" fill-rule="evenodd" clip-rule="evenodd" d="M9.41553 13.4153C9.8387 13.4153 10.1818 13.7584 10.1818 14.1816V17.2465C10.1818 17.6697 9.8387 18.0127 9.41553 18.0127C8.99235 18.0127 8.64929 17.6697 8.64929 17.2465V14.1816C8.64929 13.7584 8.99235 13.4153 9.41553 13.4153Z" fill="white"></path>
</g>
<defs>
<clipPath id="clip0_2160_4308">
<rect width="18.3896" height="18.3896" fill="white" transform="translate(0.220734 0.389374)"></rect>
</clipPath>
</defs>
</svg>
