<svg width="19" height="19" fill="none" xmlns="http://www.w3.org/2000/svg"><g id="Component 1" clip-path="url('#clip0_2160_4308')" fill-rule="evenodd" clip-rule="evenodd" fill="#fff"><path id="Vector (Stroke)" d="M13.247 9.584c0-.423.343-.766.766-.766h3.065a.766.766 0 1 1 0 1.532h-3.065a.766.766 0 0 1-.766-.766Z"/><path id="Vector (Stroke)_2" d="M.987 9.584c0-.423.343-.766.766-.766h3.065a.766.766 0 0 1 0 1.532H1.753a.766.766 0 0 1-.766-.766Z"/><path id="Vector (Stroke)_3" d="M9.416 1.156c.423 0 .766.343.766.766v3.065a.766.766 0 0 1-1.533 0V1.922c0-.423.343-.766.767-.766Z"/><path id="Vector (Stroke)_4" d="M9.416 13.415c.423 0 .766.343.766.767v3.065a.766.766 0 0 1-1.533 0v-3.065c0-.424.343-.767.767-.767Z"/></g><defs><clipPath id="clip0_2160_4308"><path fill="#fff" transform="translate(.22 .39)" d="M0 0h18.39v18.39H0z"/></clipPath></defs></svg>