<svg width="336" height="160" fill="none" xmlns="http://www.w3.org/2000/svg"><path d="M87.08 82.907a11.459 11.459 0 1 0 0-22.918 11.459 11.459 0 0 0 0 22.918ZM87.154 88.633h-.039a17.197 17.197 0 0 1-16.66-12.949c-.575-2.29-2.438-4.23-4.8-4.23h-7.178c0 15.816 12.822 28.638 28.638 28.638h.039V88.633Z" fill="#0E0D17"/><path d="M87.082 88.633h.033c7.86 0 14.72-5.331 16.66-12.949.58-2.29 2.443-4.23 4.806-4.23h7.178c-.003 15.817-12.826 28.638-28.644 28.638h-.033V88.633Z" fill="#0E0D17"/><path opacity=".8" d="M107.37 91.702a28.639 28.639 0 0 1-40.503 0l8.1-8.1c6.712 6.709 17.591 6.709 24.304 0l8.099 8.1Z" fill="#0E0D17"/><path d="M258.426 70.879h3.151v13.415h-3.151V70.879Zm1.59-2.193a2.033 2.033 0 0 1-1.436-.548 1.78 1.78 0 0 1-.581-1.353c-.007-.5.205-.979.581-1.31a1.999 1.999 0 0 1 1.436-.548 2.059 2.059 0 0 1 1.435.548c.376.319.589.79.581 1.282a1.926 1.926 0 0 1-.581 1.409 1.95 1.95 0 0 1-1.435.504v.016Zm-6.231 15.783a2.023 2.023 0 0 1-2.067-2.088c-.02-.56.19-1.105.581-1.507a2.079 2.079 0 0 1 1.486-.575 2.016 2.016 0 0 1 2.065 2.082 2.016 2.016 0 0 1-2.065 2.088Zm13.793-.877a8.22 8.22 0 0 0 7.382 0 6.415 6.415 0 0 0 2.547-2.438 6.934 6.934 0 0 0 .932-3.568 6.772 6.772 0 0 0-.932-3.54 6.376 6.376 0 0 0-2.564-2.439 8.22 8.22 0 0 0-7.382 0 6.51 6.51 0 0 0-2.569 2.439 6.863 6.863 0 0 0-.91 3.54 7.008 7.008 0 0 0 .91 3.568 6.573 6.573 0 0 0 2.586 2.438Zm6.549-2.965a4.16 4.16 0 0 1-5.744 0 4.217 4.217 0 0 1-1.096-3.041 4.217 4.217 0 0 1 1.096-3.041 4.144 4.144 0 0 1 5.744 0 4.159 4.159 0 0 1 1.134 3.041 4.159 4.159 0 0 1-1.134 3.041Zm-89.056 2.932c-.4.317-.861.547-1.354.674a5.973 5.973 0 0 1-1.644.225 4.72 4.72 0 0 1-3.403-1.15 4.386 4.386 0 0 1-1.201-3.344v-11.94h3.125v3.04h3.578v2.5h-3.578v6.34a2.16 2.16 0 0 0 .475 1.496 1.81 1.81 0 0 0 1.376.499 2.778 2.778 0 0 0 1.754-.548l.872 2.208Zm-45.151.9a7.868 7.868 0 0 1-3.726-.872 6.465 6.465 0 0 1-2.576-2.422 6.839 6.839 0 0 1-.925-3.546 6.689 6.689 0 0 1 .925-3.518 6.492 6.492 0 0 1 2.549-2.422 7.914 7.914 0 0 1 3.753-.872 7.17 7.17 0 0 1 3.453.8 5.132 5.132 0 0 1 2.241 2.307l-2.383 1.425a3.706 3.706 0 0 0-1.453-1.403 3.837 3.837 0 0 0-1.88-.47A3.926 3.926 0 0 0 137 74.61a4.024 4.024 0 0 0-1.151 3.02 4.16 4.16 0 0 0 1.096 3.047 4.29 4.29 0 0 0 4.833.69 3.931 3.931 0 0 0 1.453-1.397l2.383 1.397a5.487 5.487 0 0 1-2.274 2.318 7.126 7.126 0 0 1-3.414.784l-.006-.01Zm25.756-.423c1.037.28 2.106.422 3.179.422 1.868 0 3.348-.373 4.428-1.096a3.474 3.474 0 0 0 1.644-2.992 3.03 3.03 0 0 0-.751-2.192 4.072 4.072 0 0 0-1.748-1.096 18.528 18.528 0 0 0-2.63-.548 13.728 13.728 0 0 1-2.362-.647 1.095 1.095 0 0 1-.751-1.096c-.002-.47.27-.897.696-1.096a4.274 4.274 0 0 1 2.105-.422 7.43 7.43 0 0 1 3.835.998l1.206-2.373a7.77 7.77 0 0 0-2.253-.822 12.132 12.132 0 0 0-2.739-.324 7.282 7.282 0 0 0-4.303 1.146 3.525 3.525 0 0 0-1.572 3.02c-.05.825.217 1.638.746 2.273.502.507 1.12.883 1.802 1.096.886.254 1.789.447 2.702.576.775.1 1.538.274 2.279.52a.993.993 0 0 1 .724.976c0 .983-.934 1.472-2.8 1.469a9.601 9.601 0 0 1-2.505-.346 8.018 8.018 0 0 1-2.148-.975l-1.2 2.373a8.02 8.02 0 0 0 2.444 1.167l-.028-.011Zm23.855-.45a8.15 8.15 0 0 0 7.333 0 6.407 6.407 0 0 0 2.526-2.421 6.891 6.891 0 0 0 .926-3.546 6.75 6.75 0 0 0-.926-3.518 6.408 6.408 0 0 0-2.526-2.422 8.15 8.15 0 0 0-7.333 0 6.585 6.585 0 0 0-2.554 2.422 6.89 6.89 0 0 0-.898 3.518 7.037 7.037 0 0 0 .898 3.546 6.571 6.571 0 0 0 2.582 2.433l-.028-.011Zm6.505-2.948a4.11 4.11 0 0 1-5.704 0 4.169 4.169 0 0 1-1.097-3.02 4.183 4.183 0 0 1 1.097-3.019 4.126 4.126 0 0 1 5.704 0 4.124 4.124 0 0 1 1.123 3.02 4.114 4.114 0 0 1-1.095 3.03l-.028-.01Zm24.112-9.83a5.424 5.424 0 0 1 4.006 1.473c.981.965 1.474 2.417 1.474 4.384v7.629h-3.129v-7.24a3.862 3.862 0 0 0-.712-2.619 2.785 2.785 0 0 0-2.225-.899 3.232 3.232 0 0 0-2.526 1.052 4.15 4.15 0 0 0-.97 2.943v6.763h-3.129v-7.24a3.863 3.863 0 0 0-.773-2.619 2.79 2.79 0 0 0-2.225-.899 3.328 3.328 0 0 0-2.553 1.025 4.278 4.278 0 0 0-.943 2.97v6.763h-3.13v-7.459c0-3.737 2.834-6.028 6.533-6.028a9.975 9.975 0 0 1 3.474.576 4.18 4.18 0 0 1 1.852 1.644 5.522 5.522 0 0 1 2.127-1.644 6.792 6.792 0 0 1 2.893-.565l-.044-.01Zm22.15 7.82c.033-.399.05-.706.05-.921a7.202 7.202 0 0 0-.872-3.595 5.95 5.95 0 0 0-2.405-2.422 6.874 6.874 0 0 0-3.475-.872 7.225 7.225 0 0 0-3.556.872 6.355 6.355 0 0 0-2.472 2.45 6.938 6.938 0 0 0-.876 3.49 6.982 6.982 0 0 0 .898 3.546 6.47 6.47 0 0 0 2.609 2.422 9.065 9.065 0 0 0 6.982.323 5.672 5.672 0 0 0 2.273-1.644l-1.677-1.924a4.87 4.87 0 0 1-3.627 1.447 4.791 4.791 0 0 1-2.899-.85 3.704 3.704 0 0 1-1.436-2.323h10.483Zm-9.255-4.418a3.8 3.8 0 0 1 2.553-.898 3.734 3.734 0 0 1 2.549.898 3.674 3.674 0 0 1 1.228 2.346h-7.58a3.688 3.688 0 0 1 1.25-2.346Zm20.04-3.392v2.97a4.07 4.07 0 0 0-.723-.076 3.759 3.759 0 0 0-2.855 1.096 4.2 4.2 0 0 0-1.025 3.047v6.439h-3.13v-6.719c0-4.872 3.13-7.365 7.733-6.757ZM154.442 84.47c-1.786 0-3.688-.493-4.718-1.474-1.03-.981-1.528-2.472-1.528-4.417v-7.623h3.128v7.201a3.948 3.948 0 0 0 .801 2.696 3.528 3.528 0 0 0 4.641 0 3.97 3.97 0 0 0 .8-2.696v-7.2h3.129v7.622c0 1.947-.51 3.42-1.528 4.417-1.042.98-2.955 1.474-4.736 1.474h.011Z" fill="#0E0D17"/></svg>