<svg width="336" height="160" viewBox="0 0 336 160" fill="none" xmlns="http://www.w3.org/2000/svg">
<path d="M87.0799 82.9067C91.7151 82.9067 95.8937 80.1142 97.667 75.8317C99.4402 71.5492 98.4588 66.6201 95.1805 63.3433C91.9022 60.0666 86.9727 59.0876 82.6911 60.8629C78.4094 62.6382 75.6189 66.8182 75.6211 71.4533C75.6211 74.4918 76.8286 77.4059 78.9777 79.554C81.1268 81.702 84.0413 82.9081 87.0799 82.9067Z" fill="#0E0D17"></path>
<path d="M87.1536 88.6333H87.1153C79.2554 88.6314 72.3971 83.3003 70.4559 75.684C69.8805 73.3933 68.0173 71.4534 65.6554 71.4534H58.4766C58.4766 87.2701 71.2986 100.092 87.1153 100.092H87.1536V88.6333Z" fill="#0E0D17"></path>
<path d="M87.082 88.6333H87.1149C94.9755 88.6333 101.835 83.3015 103.775 75.684C104.355 73.3933 106.218 71.4534 108.581 71.4534H115.759C115.756 87.271 102.933 100.092 87.1149 100.092H87.082V88.6333Z" fill="#0E0D17"></path>
<path opacity="0.8" d="M107.37 91.702C101.999 97.0733 94.7146 100.091 87.1187 100.091C79.5228 100.091 72.2381 97.0733 66.8672 91.702L74.9667 83.6025C81.6793 90.3109 92.5581 90.3109 99.2707 83.6025L107.37 91.702Z" fill="#0E0D17"></path>
<path d="M258.426 70.8785H261.577V84.2937H258.426V70.8785ZM260.016 68.6865C259.484 68.6987 258.968 68.502 258.58 68.1385C258.2 67.7923 257.988 67.2988 257.999 66.7849C257.992 66.2845 258.204 65.8062 258.58 65.4752C258.966 65.1086 259.483 64.9113 260.016 64.9272C260.547 64.9178 261.061 65.1142 261.451 65.4752C261.827 65.794 262.04 66.2646 262.032 66.7575C262.04 67.2869 261.83 67.7964 261.451 68.1659C261.06 68.5214 260.543 68.7033 260.016 68.67V68.6865ZM253.785 84.469C253.229 84.4814 252.693 84.2646 252.302 83.8697C251.911 83.4747 251.7 82.9364 251.718 82.3811C251.698 81.8206 251.908 81.2761 252.299 80.8741C252.698 80.4926 253.233 80.2855 253.785 80.2987C254.34 80.2848 254.876 80.5003 255.267 80.8944C255.658 81.2885 255.868 81.8263 255.85 82.3811C255.87 82.9368 255.66 83.4761 255.269 83.8715C254.878 84.2667 254.341 84.483 253.785 84.469ZM267.578 83.5922C269.9 84.7591 272.637 84.7591 274.96 83.5922C276.02 83.033 276.903 82.1883 277.507 81.1536C278.134 80.0703 278.456 78.8375 278.439 77.586C278.459 76.3429 278.137 75.1181 277.507 74.046C276.9 73.0078 276.011 72.1626 274.943 71.6074C272.621 70.4405 269.884 70.4405 267.561 71.6074C266.495 72.1673 265.607 73.0113 264.992 74.046C264.374 75.1221 264.06 76.3455 264.082 77.586C264.062 78.835 264.376 80.0664 264.992 81.1536C265.614 82.1885 266.508 83.0322 267.578 83.5922ZM274.127 80.6275C272.519 82.1612 269.991 82.1612 268.383 80.6275C267.628 79.7997 267.234 78.7052 267.287 77.586C267.234 76.4669 267.628 75.3725 268.383 74.5446C269.987 73.0025 272.522 73.0025 274.127 74.5446C274.901 75.363 275.311 76.4605 275.261 77.586C275.311 78.7116 274.901 79.8091 274.127 80.6275ZM185.071 83.5593C184.671 83.8759 184.21 84.1055 183.717 84.2334C183.182 84.3845 182.628 84.4601 182.073 84.4581C180.832 84.5381 179.608 84.1245 178.67 83.3073C177.816 82.4121 177.38 81.1981 177.469 79.9644V68.0234H180.594V71.0649H184.172V73.5637H180.594V79.9041C180.559 80.445 180.729 80.9793 181.069 81.4001C181.437 81.7528 181.937 81.9338 182.445 81.8988C183.075 81.9203 183.694 81.7271 184.199 81.3508L185.071 83.5593ZM139.92 84.4581C138.625 84.4787 137.346 84.1794 136.194 83.5867C135.127 83.0345 134.235 82.1957 133.618 81.1646C132.993 80.0891 132.673 78.8631 132.693 77.6189C132.67 76.3832 132.991 75.1655 133.618 74.1008C134.229 73.0744 135.11 72.2364 136.167 71.6786C137.327 71.0835 138.616 70.7841 139.92 70.8072C141.12 70.7808 142.307 71.0559 143.373 71.6074C144.348 72.1162 145.133 72.925 145.614 73.9144L143.231 75.3393C142.886 74.7462 142.383 74.2605 141.778 73.9363C141.202 73.621 140.555 73.4587 139.898 73.4651C138.815 73.4308 137.767 73.8452 137 74.6104C136.211 75.4122 135.794 76.507 135.849 77.6299C135.788 78.7518 136.183 79.8506 136.945 80.6768C138.256 81.8905 140.18 82.1656 141.778 81.3673C142.376 81.0357 142.876 80.554 143.231 79.9699L145.614 81.3673C145.107 82.3521 144.314 83.1602 143.34 83.6854C142.285 84.2266 141.111 84.496 139.926 84.469L139.92 84.4581ZM165.676 84.036C166.713 84.3163 167.782 84.4581 168.855 84.4581C170.723 84.4581 172.203 84.0854 173.283 83.3621C174.317 82.7213 174.941 81.5863 174.927 80.3699C174.977 79.5688 174.707 78.7806 174.176 78.1779C173.697 77.6685 173.095 77.2911 172.428 77.0819C171.565 76.8357 170.686 76.6525 169.798 76.5339C168.993 76.3891 168.202 76.1727 167.436 75.8873C166.967 75.7325 166.66 75.2839 166.685 74.7913C166.683 74.3216 166.955 73.8938 167.381 73.6953C168.035 73.3779 168.759 73.2327 169.486 73.2733C170.83 73.2523 172.156 73.597 173.321 74.2707L174.527 71.8978C173.823 71.5089 173.063 71.2315 172.274 71.0758C171.376 70.8642 170.457 70.7557 169.535 70.7524C168.016 70.6755 166.512 71.0761 165.232 71.8978C164.225 72.5675 163.631 73.7075 163.66 74.9172C163.61 75.7426 163.877 76.5558 164.406 77.1915C164.908 77.6981 165.526 78.0744 166.208 78.2875C167.094 78.5415 167.997 78.7337 168.91 78.8629C169.685 78.9628 170.448 79.1372 171.189 79.3835C171.624 79.5058 171.922 79.907 171.913 80.3589C171.913 81.3417 170.979 81.8313 169.113 81.8277C168.266 81.8235 167.424 81.7074 166.608 81.4824C165.848 81.265 165.124 80.9362 164.46 80.5069L163.26 82.8798C164.003 83.4047 164.829 83.7994 165.704 84.047L165.676 84.036ZM189.531 83.5867C191.837 84.7484 194.557 84.7484 196.864 83.5867C197.914 83.0297 198.789 82.191 199.39 81.1646C200.013 80.088 200.333 78.8628 200.316 77.6189C200.335 76.3836 200.015 75.1666 199.39 74.1008C198.789 73.0744 197.914 72.2357 196.864 71.6786C194.557 70.5169 191.837 70.5169 189.531 71.6786C188.476 72.239 187.593 73.0763 186.977 74.1008C186.368 75.172 186.059 76.387 186.079 77.6189C186.061 78.8594 186.37 80.0827 186.977 81.1646C187.598 82.1967 188.491 83.0383 189.559 83.5977L189.531 83.5867ZM196.036 80.6385C194.444 82.173 191.923 82.173 190.332 80.6385C189.577 79.8187 189.183 78.7314 189.235 77.6189C189.184 76.5066 189.579 75.4199 190.332 74.5994C191.926 73.0734 194.441 73.0734 196.036 74.5994C196.805 75.4122 197.209 76.5019 197.159 77.6189C197.221 78.7361 196.826 79.8302 196.064 80.6494L196.036 80.6385ZM220.148 70.8072C221.629 70.7306 223.077 71.2633 224.154 72.2814C225.135 73.2459 225.628 74.6981 225.628 76.6654V84.2937H222.499V77.0545C222.587 76.1239 222.333 75.1933 221.787 74.435C221.219 73.8149 220.401 73.4845 219.562 73.5363C218.605 73.4958 217.681 73.8811 217.036 74.5885C216.345 75.4076 215.997 76.462 216.066 77.5313V84.2937H212.937V77.0545C213.007 76.1164 212.732 75.185 212.164 74.435C211.596 73.8155 210.778 73.4853 209.939 73.5363C208.979 73.494 208.049 73.8675 207.386 74.5611C206.709 75.3976 206.373 76.458 206.443 77.5313V84.2937H203.313V76.8353C203.313 73.0979 206.147 70.8072 209.846 70.8072C211.029 70.7916 212.206 70.9864 213.32 71.3827C214.089 71.731 214.735 72.3042 215.172 73.0267C215.735 72.3119 216.465 71.7472 217.299 71.3827C218.211 70.9851 219.197 70.7923 220.192 70.8182L220.148 70.8072ZM242.298 78.6273C242.331 78.229 242.348 77.9222 242.348 77.7066C242.375 76.4529 242.075 75.2137 241.476 74.1117C240.928 73.0867 240.092 72.2447 239.071 71.6896C238.01 71.0971 236.811 70.7964 235.596 70.8182C234.355 70.7986 233.131 71.0987 232.04 71.6896C231.004 72.2603 230.148 73.1086 229.568 74.1391C228.974 75.2051 228.672 76.4094 228.692 77.6299C228.671 78.8707 228.981 80.0946 229.59 81.1755C230.216 82.211 231.12 83.0502 232.199 83.5977C234.39 84.6344 236.903 84.7509 239.181 83.921C240.064 83.5721 240.846 83.0068 241.454 82.277L239.777 80.3535C238.823 81.3205 237.508 81.845 236.15 81.8003C235.117 81.8372 234.101 81.5392 233.251 80.9508C232.494 80.3874 231.98 79.5564 231.815 78.6273H242.298ZM233.043 74.2104C233.755 73.6077 234.663 73.2879 235.596 73.3117C236.528 73.2824 237.437 73.603 238.145 74.2104C238.832 74.8124 239.269 75.6486 239.373 76.5558H231.793C231.904 75.6459 232.349 74.8098 233.043 74.2104ZM253.083 70.8182V73.7884C252.845 73.7413 252.603 73.7157 252.36 73.7117C251.295 73.6559 250.259 74.0543 249.505 74.8077C248.773 75.6474 248.404 76.7433 248.48 77.8546V84.2937H245.35V77.5751C245.35 72.7034 248.48 70.2099 253.083 70.8182ZM154.442 84.469C152.656 84.469 150.754 83.9758 149.724 82.9948C148.694 82.0139 148.196 80.5234 148.196 78.578V70.9552H151.324V78.156C151.251 79.1225 151.536 80.0823 152.125 80.8521C153.454 82.0127 155.436 82.0127 156.766 80.8521C157.353 80.0811 157.637 79.1223 157.566 78.156V70.9552H160.695V78.578C160.695 80.5252 160.185 81.9975 159.167 82.9948C158.125 83.9758 156.212 84.469 154.431 84.469H154.442Z" fill="#0E0D17"></path>
</svg>
