<svg width="336" height="160" fill="none" xmlns="http://www.w3.org/2000/svg"><g clip-path="url('#clip0_275_276')"><g clip-path="url('#clip1_275_276')"><mask id="mask0_275_276" style="mask-type:luminance" maskUnits="userSpaceOnUse" x="98" y="54" width="141" height="52"><path d="M238.564 54.99H98.59v50.125h139.974V54.99Z" fill="#fff"/></mask><g mask="url('#mask0_275_276')" fill="#0E0D17"><path d="M115.598 72.16c0-1.75-1.422-3.17-3.175-3.17a3.172 3.172 0 0 0-3.173 3.17c0 1.75 1.422 3.169 3.173 3.169a3.173 3.173 0 0 0 3.175-3.17ZM116.414 92.373h-7.981c-.288 0-.539.162-.706.393a1.504 1.504 0 0 0-.27.876v.011c.002 2.545 1.209 5.337 2.402 7.512 1.194 2.173 2.387 3.721 2.392 3.728l.023.032.148.192.172-.224s1.197-1.553 2.393-3.728c1.191-2.175 2.398-4.967 2.4-7.512v-.011c0-.338-.098-.643-.269-.876-.167-.23-.418-.393-.706-.393h.002Z"/><path d="M119.326 92.145a.795.795 0 0 0 .555.224l.489.005 5.452-.041a.346.346 0 0 0 .192-.046.412.412 0 0 0 .151-.137.651.651 0 0 0 .091-.363c0-.134-.02-.276-.068-.474a6.23 6.23 0 0 0-.178-.589 18.419 18.419 0 0 0-.581-1.458l-3.804-8.354v-.02c-.078-2.551-.178-5.43-.343-7.445-.071-.86-.139-1.443-.219-1.828-1.237-5.896-4.071-11.578-8.192-16.42a.588.588 0 0 0-.425-.207h-.053a.604.604 0 0 0-.421.207c-4.117 4.842-6.95 10.524-8.188 16.427-.08.385-.151.965-.22 1.827-.162 2.015-.265 4.895-.34 7.443l-.009.041-.053.121-3.745 8.213c-.199.44-.4.944-.58 1.458a6.44 6.44 0 0 0-.179.586c-.048.196-.068.34-.068.477 0 .114.011.23.091.36a.413.413 0 0 0 .327.183l5.473.039.484-.005a.792.792 0 0 0 .798-.792V83.02c.002-.413.013-1.13.029-2.01v-.126c.022-1.054.052-2.04.084-2.93.048-1.314.101-2.444.162-3.352.071-1.056.156-1.87.243-2.29.573-2.862 1.563-5.71 2.943-8.464.903-1.805 1.976-3.548 3.025-4.912l.176-.229.176.229c1.049 1.364 2.123 3.11 3.026 4.912 1.377 2.754 2.366 5.602 2.942 8.463.085.422.172 1.235.243 2.291.061.915.116 2.042.162 3.354.032.9.062 1.883.084 2.928v.13c.019.878.028 1.595.03 2.008v8.559c0 .214.087.42.24.568l-.002-.002ZM196.576 72.22c-7.2 0-13.056 5.88-13.056 13.103 0 7.225 5.858 13.102 13.056 13.102 7.2 0 13.057-5.88 13.057-13.104 0-7.224-5.859-13.102-13.057-13.104v.002Zm4.577 17.697a6.42 6.42 0 0 1-4.577 1.903 6.42 6.42 0 0 1-4.577-1.903 6.473 6.473 0 0 1-1.897-4.596c0-1.736.675-3.368 1.897-4.595a6.419 6.419 0 0 1 4.577-1.903c1.728 0 3.354.675 4.577 1.903a6.471 6.471 0 0 1 1.896 4.595 6.476 6.476 0 0 1-1.896 4.596ZM139.629 61.574h-6.641v36.917h6.641V61.574ZM150.198 72.214h-6.639v26.275h6.639V72.214ZM176.947 65.656h-6.709v6.508h-7.371v-1.093c0-1.49.315-2.517.95-3.09.636-.57 1.763-.837 3.378-.807v-5.602c-3.709-.096-6.485.619-8.324 2.138-1.84 1.52-2.758 3.895-2.758 7.124v1.332h-2.996v5.46h2.996v20.851h6.754V77.624h7.371v12.682c0 5.447 2.806 8.17 8.42 8.17h4.185V92.87h-3.09c-1.017 0-1.736-.196-2.164-.593-.427-.395-.642-1.036-.642-1.924v-12.73h5.896v-5.46h-5.896v-6.508ZM149.43 62.547a3.828 3.828 0 0 0-5.098 0 3.213 3.213 0 0 0-1.015 2.42 3.214 3.214 0 0 0 1.015 2.421 3.828 3.828 0 0 0 5.098 0 3.209 3.209 0 0 0 1.014-2.42 3.22 3.22 0 0 0-1.014-2.422ZM238.568 72.164h-4.348v-1.093c0-1.49.315-2.517.95-3.09.636-.57 1.762-.837 3.377-.807v-5.602c-3.708-.096-6.484.619-8.323 2.138-1.84 1.52-2.759 3.895-2.759 7.124v1.332h-7.574v-1.093c0-1.49.315-2.516.951-3.089.634-.57 1.761-.837 3.377-.808v-5.604c-3.709-.096-6.485.619-8.324 2.138-1.84 1.52-2.759 3.895-2.759 7.124v1.332h-2.995v5.46h2.995v20.851h6.755V77.624h7.574v20.851h6.755v-20.85h4.348v-5.46Z"/></g></g></g><defs><clipPath id="clip0_275_276"><path fill="#fff" transform="translate(.61)" d="M0 0h334.94v159.97H0z"/></clipPath><clipPath id="clip1_275_276"><path fill="#fff" transform="translate(.61)" d="M0 0h334.94v159.97H0z"/></clipPath></defs></svg>