<svg width="176" height="36" viewBox="0 0 176 36" fill="none" xmlns="http://www.w3.org/2000/svg">
<path d="M27.7501 2H9.25024L37 18L27.7501 2Z" fill="white"></path>
<path d="M9.25024 34H27.7501L37 18L9.25024 34Z" fill="white"></path>
<path d="M9.24991 2L0 18L9.24991 34L18.4998 18L9.24991 2Z" fill="white"></path>
<path d="M48.5299 4.81818V31H43.787V4.81818H48.5299ZM73.0215 4.81818V31H68.8028L56.4661 13.1662H56.2488V31H51.5059V4.81818H55.7502L68.0741 22.6648H68.3042V4.81818H73.0215ZM90.2582 12.0156C90.1389 10.8991 89.636 10.0298 88.7497 9.40767C87.8718 8.78551 86.7298 8.47443 85.3235 8.47443C84.3349 8.47443 83.4869 8.62358 82.7795 8.92188C82.0721 9.22017 81.5309 9.625 81.1559 10.1364C80.7809 10.6477 80.5892 11.2315 80.5806 11.8878C80.5806 12.4332 80.7042 12.9062 80.9514 13.3068C81.2071 13.7074 81.5522 14.0483 81.9869 14.3295C82.4215 14.6023 82.9031 14.8324 83.4315 15.0199C83.9599 15.2074 84.4926 15.3651 85.0295 15.4929L87.484 16.1065C88.4727 16.3366 89.423 16.6477 90.3349 17.0398C91.2554 17.4318 92.0778 17.9261 92.8022 18.5227C93.5352 19.1193 94.1147 19.8395 94.5409 20.6832C94.967 21.527 95.1801 22.5156 95.1801 23.6491C95.1801 25.1832 94.788 26.5341 94.0039 27.7017C93.2198 28.8608 92.0863 29.7685 90.6034 30.4247C89.1289 31.0724 87.3434 31.3963 85.2468 31.3963C83.2099 31.3963 81.4414 31.081 79.9414 30.4503C78.45 29.8196 77.2823 28.8991 76.4386 27.6889C75.6034 26.4787 75.1517 25.0043 75.0835 23.2656H79.7497C79.8179 24.1776 80.0991 24.9361 80.5934 25.5412C81.0877 26.1463 81.7312 26.598 82.5238 26.8963C83.325 27.1946 84.2198 27.3438 85.2085 27.3438C86.2397 27.3438 87.1431 27.1903 87.9187 26.8835C88.7028 26.5682 89.3164 26.1335 89.7596 25.5795C90.2028 25.017 90.4286 24.3608 90.4372 23.6108C90.4286 22.929 90.2284 22.3665 89.8363 21.9233C89.4443 21.4716 88.8946 21.0966 88.1872 20.7983C87.4883 20.4915 86.6701 20.2187 85.7326 19.9801L82.7539 19.2131C80.5977 18.6591 78.8931 17.8196 77.6403 16.6946C76.396 15.5611 75.7738 14.0568 75.7738 12.1818C75.7738 10.6392 76.1914 9.28835 77.0267 8.12926C77.8704 6.97017 79.0167 6.07102 80.4656 5.43182C81.9144 4.78409 83.5551 4.46023 85.3875 4.46023C87.2454 4.46023 88.8733 4.78409 90.271 5.43182C91.6772 6.07102 92.7809 6.96165 93.5821 8.10369C94.3832 9.23721 94.7965 10.5412 94.8221 12.0156H90.2582ZM101.991 4.81818V31H97.2484V4.81818H101.991ZM122.507 13.179C122.294 12.4886 122 11.8707 121.625 11.3253C121.259 10.7713 120.815 10.2983 120.295 9.90625C119.784 9.5142 119.196 9.22017 118.531 9.02415C117.866 8.8196 117.142 8.71733 116.358 8.71733C114.952 8.71733 113.699 9.07102 112.599 9.77841C111.5 10.4858 110.635 11.5256 110.004 12.8977C109.382 14.2614 109.071 15.9233 109.071 17.8835C109.071 19.8608 109.382 21.5355 110.004 22.9077C110.626 24.2798 111.491 25.3239 112.599 26.0398C113.707 26.7472 114.994 27.1009 116.46 27.1009C117.79 27.1009 118.94 26.8452 119.912 26.3338C120.892 25.8224 121.646 25.098 122.175 24.1605C122.703 23.2145 122.967 22.1065 122.967 20.8366L124.041 21.0028H116.933V17.2955H127.557V20.4403C127.557 22.6818 127.08 24.6207 126.125 26.2571C125.17 27.8935 123.858 29.1548 122.187 30.0412C120.517 30.919 118.599 31.358 116.435 31.358C114.023 31.358 111.905 30.8168 110.081 29.7344C108.266 28.6435 106.847 27.0966 105.824 25.0938C104.81 23.0824 104.303 20.696 104.303 17.9347C104.303 15.821 104.601 13.9332 105.197 12.2713C105.803 10.6094 106.646 9.19886 107.729 8.03977C108.811 6.87216 110.081 5.98579 111.538 5.38068C112.996 4.76704 114.581 4.46023 116.294 4.46023C117.743 4.46023 119.094 4.67329 120.347 5.09943C121.599 5.51704 122.712 6.11364 123.683 6.8892C124.663 7.66477 125.469 8.58523 126.099 9.65057C126.73 10.7159 127.143 11.892 127.339 13.179H122.507ZM129.983 31V4.81818H134.726V15.902H146.858V4.81818H151.614V31H146.858V19.8778H134.726V31H129.983ZM153.462 8.79403V4.81818H174.351V8.79403H166.258V31H161.554V8.79403H153.462Z" fill="white"></path>
</svg>
