<svg width="176" height="36" fill="none" xmlns="http://www.w3.org/2000/svg"><path d="M27.75 2H9.25L37 18 27.75 2ZM9.25 34h18.5L37 18 9.25 34ZM9.25 2 0 18l9.25 16 9.25-16L9.25 2ZM48.53 4.818V31h-4.743V4.818h4.743Zm24.492 0V31h-4.22L56.467 13.166h-.217V31h-4.743V4.818h4.244l12.324 17.847h.23V4.818h4.718Zm17.236 7.198c-.12-1.117-.622-1.986-1.508-2.608-.878-.622-2.02-.934-3.427-.934-.988 0-1.836.15-2.543.448-.708.298-1.25.703-1.624 1.214a2.953 2.953 0 0 0-.575 1.752c0 .545.123 1.018.37 1.419.256.4.601.741 1.036 1.022.434.273.916.503 1.445.69a15.53 15.53 0 0 0 1.597.474l2.455.614c.989.23 1.939.54 2.85.933.921.392 1.744.886 2.468 1.483a6.582 6.582 0 0 1 1.739 2.16c.426.844.64 1.833.64 2.966 0 1.534-.393 2.885-1.177 4.053-.784 1.159-1.918 2.066-3.4 2.723-1.475.647-3.26.971-5.357.971-2.037 0-3.806-.315-5.306-.946-1.491-.63-2.659-1.55-3.502-2.761-.836-1.21-1.287-2.685-1.355-4.423h4.666c.068.912.35 1.67.843 2.275.495.605 1.138 1.057 1.93 1.355.802.299 1.697.448 2.686.448 1.03 0 1.934-.154 2.71-.46.784-.316 1.397-.75 1.84-1.305.444-.562.67-1.218.678-1.968-.008-.682-.209-1.245-.6-1.688-.393-.451-.942-.826-1.65-1.125a15.892 15.892 0 0 0-2.454-.818l-2.98-.767c-2.155-.554-3.86-1.393-5.113-2.518-1.244-1.134-1.866-2.638-1.866-4.513 0-1.543.417-2.894 1.253-4.053.843-1.159 1.99-2.058 3.439-2.697 1.448-.648 3.09-.972 4.922-.972 1.857 0 3.485.324 4.883.972 1.406.639 2.51 1.53 3.311 2.672.801 1.133 1.215 2.437 1.24 3.912h-4.564Zm11.733-7.198V31h-4.743V4.818h4.743Zm20.516 8.361a6.77 6.77 0 0 0-.882-1.854 5.693 5.693 0 0 0-1.33-1.419 5.353 5.353 0 0 0-1.764-.882 7.359 7.359 0 0 0-2.173-.307c-1.406 0-2.659.354-3.759 1.061-1.099.708-1.964 1.748-2.595 3.12-.622 1.363-.933 3.025-.933 4.986 0 1.977.311 3.651.933 5.024.622 1.372 1.487 2.416 2.595 3.132 1.108.707 2.395 1.06 3.861 1.06 1.33 0 2.48-.255 3.452-.766a5.411 5.411 0 0 0 2.263-2.174c.528-.945.792-2.053.792-3.323l1.074.166h-7.108v-3.707h10.624v3.144c0 2.242-.477 4.18-1.432 5.817a9.783 9.783 0 0 1-3.938 3.784c-1.67.878-3.588 1.317-5.752 1.317-2.412 0-4.53-.541-6.354-1.624-1.815-1.09-3.234-2.637-4.257-4.64-1.014-2.012-1.521-4.398-1.521-7.16 0-2.113.298-4 .894-5.663.606-1.662 1.449-3.072 2.532-4.231a10.77 10.77 0 0 1 3.809-2.66c1.458-.613 3.043-.92 4.756-.92 1.449 0 2.8.213 4.053.64a10.739 10.739 0 0 1 3.336 1.79 9.965 9.965 0 0 1 2.416 2.76 9.725 9.725 0 0 1 1.24 3.529h-4.832ZM129.983 31V4.818h4.743v11.084h12.132V4.818h4.756V31h-4.756V19.878h-12.132V31h-4.743Zm23.479-22.206V4.818h20.889v3.976h-8.093V31h-4.704V8.794h-8.092Z" fill="#0E0D17"/></svg>