<svg width="110" height="24" fill="none" xmlns="http://www.w3.org/2000/svg"><path d="M20.93 0H6.977l20.93 12L20.93 0ZM6.977 24H20.93l6.977-12-20.93 12ZM6.977 0 0 12l6.977 12 6.976-12L6.977 0ZM34.757 4.227V19.5h-2.766V4.227h2.766Zm14.287 0V19.5h-2.46L39.386 9.097h-.127V19.5h-2.767V4.227h2.476l7.19 10.41h.133V4.228h2.752ZM59.1 8.426c-.07-.652-.363-1.159-.88-1.522-.512-.363-1.178-.544-1.998-.544-.577 0-1.072.087-1.485.26-.412.175-.728.411-.947.71-.218.298-.33.638-.335 1.021 0 .318.072.594.216.828.15.233.35.432.604.596.254.16.535.294.843.403.308.11.619.201.932.276l1.432.358a9.869 9.869 0 0 1 1.663.544 5.862 5.862 0 0 1 1.44.865 3.84 3.84 0 0 1 1.013 1.26c.249.493.373 1.07.373 1.73 0 .896-.229 1.684-.686 2.365-.457.676-1.119 1.206-1.984 1.588-.86.378-1.901.567-3.124.567-1.189 0-2.22-.184-3.095-.552-.87-.368-1.551-.905-2.044-1.61-.487-.707-.75-1.567-.79-2.58h2.722c.04.531.204.974.492 1.326.288.354.664.617 1.126.791.468.174.99.261 1.566.261.602 0 1.129-.09 1.581-.268.458-.184.816-.438 1.074-.761.259-.328.39-.711.395-1.149-.005-.397-.121-.725-.35-.984-.229-.263-.55-.482-.962-.656a9.279 9.279 0 0 0-1.432-.477l-1.738-.448c-1.257-.323-2.252-.813-2.982-1.469-.726-.661-1.09-1.539-1.09-2.632 0-.9.244-1.688.732-2.364.492-.677 1.16-1.201 2.006-1.574.845-.378 1.802-.567 2.87-.567 1.085 0 2.034.19 2.85.567.82.373 1.464.892 1.931 1.559.467.66.708 1.421.723 2.282H59.1Zm6.844-4.199V19.5h-2.766V4.227h2.766Zm11.968 4.877a3.953 3.953 0 0 0-.514-1.081 3.326 3.326 0 0 0-.776-.828 3.127 3.127 0 0 0-1.03-.514 4.293 4.293 0 0 0-1.267-.18c-.82 0-1.551.207-2.192.62-.642.412-1.146 1.019-1.514 1.82-.363.795-.545 1.764-.545 2.907 0 1.154.182 2.13.545 2.931.363.8.867 1.41 1.514 1.827.646.413 1.396.62 2.252.62.775 0 1.446-.15 2.013-.448a3.153 3.153 0 0 0 1.32-1.268c.308-.552.463-1.198.463-1.939l.626.097H74.66v-2.162h6.197v1.834c0 1.308-.279 2.439-.835 3.393a5.707 5.707 0 0 1-2.297 2.208c-.975.512-2.093.768-3.356.768-1.407 0-2.643-.316-3.707-.947-1.059-.637-1.886-1.54-2.483-2.707-.592-1.174-.887-2.566-.887-4.177 0-1.233.174-2.334.522-3.303.353-.97.845-1.793 1.476-2.469a6.284 6.284 0 0 1 2.222-1.55 7.076 7.076 0 0 1 2.775-.538c.845 0 1.633.125 2.364.373.73.244 1.38.592 1.946 1.044.572.453 1.042.99 1.41 1.61.367.622.609 1.308.723 2.06h-2.819ZM82.272 19.5V4.227h2.767v6.466h7.077V4.227h2.774V19.5h-2.774v-6.488h-7.077V19.5h-2.767ZM95.968 6.546V4.227h12.185v2.32h-4.72V19.5h-2.744V6.546h-4.721Z" fill="#fff"/></svg>