<svg viewBox="0 0 145 32" fill="none" xmlns="http://www.w3.org/2000/svg"><path d="M27.906 0H9.302l27.907 16-9.303-16ZM9.302 32h18.604l9.303-16L9.302 32ZM9.302 0 0 16l9.302 16 9.302-16L9.302 0ZM46.176 5.636V26h-3.689V5.636h3.69Zm19.05 0V26h-3.282L52.35 12.13h-.17V26h-3.688V5.636h3.301l9.585 13.881h.18V5.637h3.668Zm13.406 5.598c-.093-.868-.484-1.544-1.174-2.028-.682-.484-1.57-.726-2.664-.726-.77 0-1.429.116-1.98.348-.55.232-.97.547-1.262.945-.292.398-.44.851-.447 1.362 0 .424.096.792.288 1.104.199.311.467.576.805.795.339.212.713.391 1.124.537.411.146.825.268 1.243.368l1.909.477c.769.18 1.508.421 2.217.726.716.305 1.356.69 1.92 1.154a5.118 5.118 0 0 1 1.352 1.68c.331.656.497 1.425.497 2.307 0 1.193-.305 2.243-.915 3.152-.61.901-1.491 1.607-2.645 2.118-1.147.503-2.535.755-4.166.755-1.584 0-2.96-.245-4.126-.736-1.16-.49-2.069-1.206-2.725-2.147-.65-.942-1-2.088-1.054-3.44h3.63c.052.709.271 1.299.656 1.77.384.47.885.821 1.501 1.053.623.232 1.32.348 2.088.348.802 0 1.505-.12 2.108-.358.61-.245 1.087-.583 1.432-1.014a2.45 2.45 0 0 0 .527-1.531c-.007-.53-.162-.968-.467-1.313-.305-.351-.733-.643-1.283-.875-.544-.238-1.18-.45-1.91-.636l-2.316-.597c-1.677-.43-3.003-1.083-3.977-1.958-.968-.882-1.452-2.052-1.452-3.51 0-1.2.325-2.25.975-3.152.656-.902 1.547-1.601 2.674-2.098 1.127-.504 2.403-.756 3.828-.756 1.445 0 2.712.252 3.799.756 1.093.497 1.952 1.19 2.575 2.078.623.881.945 1.896.964 3.042h-3.55Zm9.125-5.598V26h-3.689V5.636h3.69Zm15.957 6.503a5.268 5.268 0 0 0-.686-1.442 4.442 4.442 0 0 0-1.034-1.103 4.171 4.171 0 0 0-1.372-.686 5.725 5.725 0 0 0-1.69-.239c-1.094 0-2.069.275-2.924.825-.855.55-1.528 1.36-2.018 2.427-.484 1.06-.726 2.353-.726 3.877 0 1.538.242 2.84.726 3.908.484 1.067 1.157 1.88 2.018 2.436.862.55 1.863.825 3.003.825 1.034 0 1.929-.198 2.685-.596a4.206 4.206 0 0 0 1.76-1.69c.411-.736.616-1.598.616-2.586l.835.13h-5.528V15.34h8.263v2.446c0 1.743-.371 3.251-1.114 4.524a7.606 7.606 0 0 1-3.062 2.943c-1.3.683-2.791 1.024-4.475 1.024-1.876 0-3.523-.42-4.942-1.262-1.412-.849-2.515-2.052-3.31-3.61-.79-1.564-1.184-3.42-1.184-5.568 0-1.644.232-3.112.696-4.405.47-1.292 1.127-2.39 1.969-3.291a8.379 8.379 0 0 1 2.963-2.068c1.133-.477 2.366-.716 3.699-.716 1.127 0 2.177.166 3.152.497a8.36 8.36 0 0 1 2.595 1.392 7.753 7.753 0 0 1 1.879 2.148c.491.829.812 1.743.965 2.744h-3.759ZM109.529 26V5.636h3.689v8.621h9.436v-8.62h3.699V26h-3.699v-8.65h-9.436V26h-3.689ZM127.79 8.729V5.636h16.247V8.73h-6.294V26h-3.659V8.729h-6.294Z" fill="#0E0D17"/></svg>