<svg width="12" height="13" fill="none" xmlns="http://www.w3.org/2000/svg"><path id="Vector" d="M4.292 2.295C5.052.932 5.432.25 6 .25c.568 0 .948.682 1.708 2.045l.197.353c.216.387.324.581.492.709.168.128.378.175.798.27l.382.086c1.476.334 2.213.501 2.389 1.066.175.564-.328 1.152-1.334 2.329l-.26.304c-.286.334-.43.502-.493.708-.065.207-.043.43 0 .876l.04.406c.152 1.57.228 2.355-.232 2.704-.46.35-1.15.03-2.532-.605l-.358-.165c-.392-.181-.589-.271-.797-.271-.208 0-.404.09-.797.271l-.357.165c-1.382.636-2.073.954-2.532.606-.46-.35-.384-1.134-.232-2.705l.04-.405c.042-.447.064-.67 0-.876-.064-.207-.208-.375-.493-.708l-.26-.305C.361 5.932-.142 5.343.033 4.778c.176-.564.914-.731 2.39-1.065l.382-.086c.42-.095.629-.142.797-.27.168-.128.276-.322.492-.71l.197-.352Z" fill="#fff"/></svg>