<svg viewBox="0 0 32 32" fill="none" xmlns="http://www.w3.org/2000/svg"><path fill-rule="evenodd" clip-rule="evenodd" d="M16 0C7.163 0 0 7.163 0 16s7.163 16 16 16 16-7.163 16-16S24.837 0 16 0Zm3.118 8c0 .238.022.472.063.699a3.841 3.841 0 0 0 1.678 2.507 3.78 3.78 0 0 0 2.082.62v2.749a6.538 6.538 0 0 1-3.823-1.23v5.592A5.07 5.07 0 0 1 14.06 24a5.038 5.038 0 0 1-2.899-.918A5.059 5.059 0 0 1 9 18.937c0-2.794 2.268-5.064 5.055-5.06.234 0 .46.018.683.048v.65l-.008.004h.008v2.155a2.303 2.303 0 0 0-.683-.108 2.312 2.312 0 0 0-2.308 2.31 2.32 2.32 0 0 0 1.24 2.047l.02.029.013.016a.391.391 0 0 0-.03-.048c.323.17.687.267 1.073.267 1.243 0 2.26-.992 2.305-2.225L16.372 8h2.746Z" fill="#fff"/></svg>