<svg viewBox="0 0 32 32" fill="none" xmlns="http://www.w3.org/2000/svg"><path fill-rule="evenodd" clip-rule="evenodd" d="M16 0C7.163 0 0 7.163 0 16s7.163 16 16 16 16-7.163 16-16S24.837 0 16 0Zm.086 24c.108-3.543.2-5.16 1.457-6.457C18.84 16.286 20.457 16.2 24 16.086c0 3.194-.011 5.583-1.154 6.76C21.669 23.989 19.389 24 16.086 24Zm-6.932-1.154C8.011 21.669 8 19.28 8 16.086c3.543.108 5.16.2 6.457 1.457C15.714 18.84 15.8 20.457 15.914 24c-3.303 0-5.583-.011-6.76-1.154Zm0-13.692C10.331 8.011 12.617 8 15.914 8c-.108 3.543-.2 5.16-1.457 6.457C13.16 15.714 11.543 15.8 8 15.914c0-3.194.011-5.583 1.154-6.76ZM16.086 8c.108 3.543.2 5.16 1.457 6.457C18.84 15.714 20.457 15.8 24 15.914c0-3.194-.011-5.583-1.154-6.76C21.669 8.011 19.389 8 16.086 8Z" fill="#fff"/></svg>